<svg xmlns="http://www.w3.org/2000/svg" viewBox="0 0 420 420" width="420" height="420"><defs>
<linearGradient id="hairG" x1="0" y1="0" x2="0" y2="1"><stop offset="0" stop-color="#3a2722"/><stop offset="1" stop-color="#2a1c19"/></linearGradient>
<linearGradient id="skinG" x1="0" y1="0" x2="0" y2="1"><stop offset="0" stop-color="#f9e0cf"/><stop offset="1" stop-color="#f6d7c3"/></linearGradient>
<radialGradient id="glow" cx=".5" cy=".5" r=".5"><stop offset="0" stop-color="#fff" stop-opacity=".95"/><stop offset="1" stop-color="#fff" stop-opacity="0"/></radialGradient>
<filter id="soft" x="-20%" y="-20%" width="140%" height="140%"><feDropShadow dx="0" dy="6" stdDeviation="8" flood-color="#5a3a2a" flood-opacity=".18"/></filter>
</defs><path d="M40,96 C120,20 300,20 380,92" stroke="#8c2f39" stroke-width="3" stroke-dasharray="2 10" stroke-linecap="round" fill="none"/><g transform="translate(372,86) rotate(32)"><path d="M-16,0 L16,0 M2,-12 L8,0 L2,12 M-14,-6 L-10,0 L-14,6" stroke="#8c2f39" stroke-width="4" stroke-linecap="round" stroke-linejoin="round" fill="none"/></g><g font-family="Arial,Helvetica,sans-serif" font-weight="700" font-size="15" fill="#8c2f39"><text x="18" y="124">SEOUL</text><text x="352" y="128">US</text></g><path d="M142,165 C128,78 272,78 258,165 L270,318 C236,336 164,336 130,318Z" fill="url(#hairG)"/><path d="M184,215 h32 v52 h-32Z" fill="#e9b79c"/><path d="M96,420 C98,322 140,276 200,276 C260,276 302,322 304,420Z" fill="#efe2cf"/><path d="M168,280 q32,34 64,0" stroke="#e2d1b8" stroke-width="9" fill="none" stroke-linecap="round"/><path d="M140,300 v120 M170,292 v128 M230,292 v128 M260,300 v120" stroke="#e2d1b8" stroke-width="5" opacity=".7"/><ellipse cx="149" cy="172" rx="9" ry="13" fill="#e9b79c"/><ellipse cx="251" cy="172" rx="9" ry="13" fill="#e9b79c"/><path d="M150,160 C150,105 250,105 250,160 C250,205 228,232 200,232 C172,232 150,205 150,160Z" fill="url(#skinG)"/><path d="M168,150 q12,-7 24,-1" stroke="#4a332c" stroke-width="3" fill="none" stroke-linecap="round"/><path d="M208,149 q12,-6 24,1" stroke="#4a332c" stroke-width="3" fill="none" stroke-linecap="round"/><ellipse cx="181" cy="172" rx="6.5" ry="8" fill="#2b2420"/><circle cx="183.5" cy="168.5" r="2.4" fill="#fff"/><path d="M171,165 q10,-8 21,-1" stroke="#2b2420" stroke-width="2.6" fill="none" stroke-linecap="round"/><ellipse cx="219" cy="172" rx="6.5" ry="8" fill="#2b2420"/><circle cx="221.5" cy="168.5" r="2.4" fill="#fff"/><path d="M208,164 q11,-7 21,1" stroke="#2b2420" stroke-width="2.6" fill="none" stroke-linecap="round"/><ellipse cx="170" cy="194" rx="11" ry="6.5" fill="#f4a3a3" opacity=".55"/><ellipse cx="230" cy="194" rx="11" ry="6.5" fill="#f4a3a3" opacity=".55"/><path d="M200,180 q3,7 -2,10" stroke="#e9b79c" stroke-width="2.4" fill="none" stroke-linecap="round"/><path d="M188,201 q12,16 24,0 q-12,4 -24,0Z" fill="#d0606c"/><path d="M192,203 q8,3 16,0" stroke="#fff" stroke-width="2" fill="none" opacity=".8"/><path d="M146,166 C136,92 264,92 254,166 C246,134 226,120 214,122 C206,136 190,140 176,128 C160,134 150,148 146,166Z" fill="url(#hairG)"/><g filter="url(#soft)"><rect x="150" y="262" width="30" height="58" rx="6.6" fill="#f2d0c8"/><rect x="157.5" y="245.76" width="15.0" height="17.4" rx="4" fill="#c98b86"/><rect x="155.4" y="284.04" width="19.2" height="12.76" rx="3" fill="#fff" opacity=".85"/></g><g filter="url(#soft)"><rect x="196" y="246" width="34" height="72" rx="7.48" fill="#e6efe7"/><rect x="204.5" y="225.84" width="17.0" height="21.599999999999998" rx="4" fill="#8fb5a0"/><rect x="202.12" y="273.36" width="21.76" height="15.84" rx="3" fill="#fff" opacity=".85"/></g><g filter="url(#soft)"><rect x="244" y="268" width="28" height="52" rx="6.16" fill="#f5e7bd"/><rect x="251.0" y="253.44" width="14.0" height="15.6" rx="4" fill="#c7a54d"/><rect x="249.04" y="287.76" width="17.92" height="11.44" rx="3" fill="#fff" opacity=".85"/></g><g filter="url(#soft)"><path d="M108,318 L312,318 L300,420 L120,420Z" fill="#c99a6b"/><path d="M108,318 L84,282 L190,282 L210,318Z" fill="#dcb284"/><path d="M312,318 L336,282 L230,282 L210,318Z" fill="#d2a777"/><rect x="132" y="350" width="156" height="12" fill="#fbf5ec"/><g><rect x="132" y="350" width="12" height="12" fill="#8c2f39"/><rect x="156" y="350" width="12" height="12" fill="#3c6b8f"/><rect x="180" y="350" width="12" height="12" fill="#8c2f39"/><rect x="204" y="350" width="12" height="12" fill="#3c6b8f"/><rect x="228" y="350" width="12" height="12" fill="#8c2f39"/><rect x="252" y="350" width="12" height="12" fill="#3c6b8f"/><rect x="276" y="350" width="12" height="12" fill="#8c2f39"/></g><rect x="168" y="372" width="84" height="30" rx="4" fill="#fbf5ec"/><text x="210" y="392" text-anchor="middle" font-family="Arial,Helvetica,sans-serif" font-weight="700" font-size="13" fill="#2b2420">KR → US</text></g><path d="M128,330 C120,300 128,290 140,286" stroke="#efe2cf" stroke-width="34" fill="none" stroke-linecap="round" stroke-linejoin="round"/><path d="M292,330 C300,300 292,290 280,286" stroke="#efe2cf" stroke-width="34" fill="none" stroke-linecap="round" stroke-linejoin="round"/><g transform="translate(142,286) rotate(-20) scale(0.9)"><rect x="-15" y="-19" width="30" height="36" rx="14" fill="#f6d7c3"/><rect x="-21" y="-6" width="12" height="22" rx="6" fill="#f6d7c3" transform="rotate(-24 -15 4)"/><path d="M-9,-12 v10 M0,-14 v12 M9,-12 v10" stroke="#e9b79c" stroke-width="1.6" stroke-linecap="round"/></g><g transform="translate(278,286) rotate(20) scale(0.9)"><rect x="-15" y="-19" width="30" height="36" rx="14" fill="#f6d7c3"/><rect x="-21" y="-6" width="12" height="22" rx="6" fill="#f6d7c3" transform="rotate(-24 -15 4)"/><path d="M-9,-12 v10 M0,-14 v12 M9,-12 v10" stroke="#e9b79c" stroke-width="1.6" stroke-linecap="round"/></g><path d="M96,216 Q98.52,227.48 110,230 Q98.52,232.52 96,244 Q93.48,232.52 82,230 Q93.48,227.48 96,216Z" fill="#f2c94c"/><path d="M330,203 Q331.98,212.02 341,214 Q331.98,215.98 330,225 Q328.02,215.98 319,214 Q328.02,212.02 330,203Z" fill="#f2c94c"/><path d="M318,245 Q319.26,250.74 325,252 Q319.26,253.26 318,259 Q316.74,253.26 311,252 Q316.74,250.74 318,245Z" fill="#e88a8a"/></svg>