<svg xmlns="http://www.w3.org/2000/svg" viewBox="0 0 420 420" width="420" height="420"><defs>
<linearGradient id="hairG" x1="0" y1="0" x2="0" y2="1"><stop offset="0" stop-color="#3a2722"/><stop offset="1" stop-color="#2a1c19"/></linearGradient>
<linearGradient id="skinG" x1="0" y1="0" x2="0" y2="1"><stop offset="0" stop-color="#f9e0cf"/><stop offset="1" stop-color="#f6d7c3"/></linearGradient>
<radialGradient id="glow" cx=".5" cy=".5" r=".5"><stop offset="0" stop-color="#fff" stop-opacity=".95"/><stop offset="1" stop-color="#fff" stop-opacity="0"/></radialGradient>
<filter id="soft" x="-20%" y="-20%" width="140%" height="140%"><feDropShadow dx="0" dy="6" stdDeviation="8" flood-color="#5a3a2a" flood-opacity=".18"/></filter>
</defs><circle cx="200" cy="170" r="146" fill="none" stroke="#fff" stroke-width="22"/><circle cx="200" cy="170" r="146" fill="none" stroke="#f2e6d4" stroke-width="2"/><circle cx="200" cy="170" r="160" fill="url(#glow)" opacity=".35"/><g filter="url(#soft)"><rect x="20" y="24" width="86" height="34" rx="17" fill="#fff"/><circle cx="40" cy="41" r="7" fill="#e0505a"/><text x="54" y="47" font-family="Arial,Helvetica,sans-serif" font-weight="700" font-size="15" fill="#2b2420">REC</text></g><g filter="url(#soft)"><rect x="276" y="34" width="128" height="36" rx="18" fill="#fff"/><circle cx="296" cy="52" r="12" fill="#f08a5d"/><path d="M292,46 L302,52 L292,58Z" fill="#fff"/><text x="314" y="58" font-family="Arial,Helvetica,sans-serif" font-weight="700" font-size="14" fill="#2b2420">1.2M views</text></g><path d="M246,104 C300,96 312,170 286,230 C280,190 270,150 246,128Z" fill="url(#hairG)"/><path d="M146,170 C134,96 266,96 254,170 C252,150 248,140 244,136 L156,136 C152,140 148,150 146,170Z" fill="url(#hairG)"/><path d="M184,215 h32 v52 h-32Z" fill="#e9b79c"/><path d="M96,420 C98,322 140,276 200,276 C260,276 302,322 304,420Z" fill="#8fb5a0"/><path d="M168,280 q32,34 64,0" stroke="#7aa08b" stroke-width="9" fill="none" stroke-linecap="round"/><rect x="176" y="330" width="48" height="40" rx="8" fill="#7aa08b"/><ellipse cx="149" cy="172" rx="9" ry="13" fill="#e9b79c"/><ellipse cx="251" cy="172" rx="9" ry="13" fill="#e9b79c"/><path d="M150,160 C150,105 250,105 250,160 C250,205 228,232 200,232 C172,232 150,205 150,160Z" fill="url(#skinG)"/><path d="M168,150 q12,-7 24,-1" stroke="#4a332c" stroke-width="3" fill="none" stroke-linecap="round"/><path d="M208,149 q12,-6 24,1" stroke="#4a332c" stroke-width="3" fill="none" stroke-linecap="round"/><ellipse cx="181" cy="172" rx="6.5" ry="8" fill="#2b2420"/><circle cx="183.5" cy="168.5" r="2.4" fill="#fff"/><path d="M171,165 q10,-8 21,-1" stroke="#2b2420" stroke-width="2.6" fill="none" stroke-linecap="round"/><ellipse cx="219" cy="172" rx="6.5" ry="8" fill="#2b2420"/><circle cx="221.5" cy="168.5" r="2.4" fill="#fff"/><path d="M208,164 q11,-7 21,1" stroke="#2b2420" stroke-width="2.6" fill="none" stroke-linecap="round"/><ellipse cx="170" cy="194" rx="11" ry="6.5" fill="#f4a3a3" opacity=".55"/><ellipse cx="230" cy="194" rx="11" ry="6.5" fill="#f4a3a3" opacity=".55"/><path d="M200,180 q3,7 -2,10" stroke="#e9b79c" stroke-width="2.4" fill="none" stroke-linecap="round"/><path d="M188,201 q12,16 24,0 q-12,4 -24,0Z" fill="#d0606c"/><path d="M192,203 q8,3 16,0" stroke="#fff" stroke-width="2" fill="none" opacity=".8"/><path d="M148,160 C142,98 258,98 252,160 C238,128 214,116 196,118 C176,120 156,136 148,160Z" fill="url(#hairG)"/><circle cx="246" cy="114" r="8" fill="#e0607a"/><path d="M126,340 C100,300 106,250 128,224" stroke="#8fb5a0" stroke-width="34" fill="none" stroke-linecap="round" stroke-linejoin="round"/><g filter="url(#soft)"><rect x="110" y="168" width="38" height="74" rx="8.36" fill="#fbf5ec"/><rect x="119.5" y="147.28" width="19.0" height="22.2" rx="4" fill="#c98b86"/><rect x="116.84" y="196.12" width="24.32" height="16.28" rx="3" fill="#f2d0c8" opacity=".85"/></g><g transform="translate(130,228) rotate(16) scale(0.95)"><rect x="-15" y="-19" width="30" height="36" rx="14" fill="#f6d7c3"/><rect x="-21" y="-6" width="12" height="22" rx="6" fill="#f6d7c3" transform="rotate(-24 -15 4)"/><path d="M-9,-12 v10 M0,-14 v12 M9,-12 v10" stroke="#e9b79c" stroke-width="1.6" stroke-linecap="round"/></g><g filter="url(#soft)"><path d="M330,420 L352,330 M374,420 L352,330 M352,420 L352,330" stroke="#3a3330" stroke-width="5" stroke-linecap="round"/><rect x="316" y="290" width="74" height="46" rx="8" fill="#2b2420"/><circle cx="342" cy="313" r="15" fill="#4b4340"/><circle cx="342" cy="313" r="8" fill="#7d9fb8"/><rect x="372" y="298" width="12" height="8" rx="2" fill="#e0505a"/></g><g filter="url(#soft)"><rect x="290" y="128" width="104" height="34" rx="17" fill="#fff"/><text x="342" y="150" text-anchor="middle" font-family="Arial,Helvetica,sans-serif" font-size="14" font-weight="700" fill="#2b2420">Where to buy?</text></g><path d="M318,196 c-6,-9 -20,-3 -14,8 l14,14 l14,-14 c6,-11 -8,-17 -14,-8Z" fill="#e0607a"/><path d="M350,222 c-4,-6 -13,-2 -9,5 l9,9 l9,-9 c4,-7 -5,-11 -9,-5Z" fill="#f4a3a3"/></svg>